# xmcd
# 
# Track frame offsets:
#     150
#     39132
#     68077
#     110780
#     154590
#     189052
#     226197
# 
# Disc length: 3574
# 
# Revision: 2
# Processed by: cddbd v1.5.2PL0 Copyright (c) Steve Scherf et al.
# Submitted via: BonkEnc v1.0.8
# 
DISCID=480df407
DTITLE=Kristian Harborg, Ludvig Berghe, Kenji Rabson, Daniel Fredriksson - Harbotastic
DYEAR=2005
DGENRE=Contemporary Jazz
TTITLE0=Reverend Goose
TTITLE1=I Knew It All Along
TTITLE2=Subterraneans
TTITLE3=Uncle Harbo
TTITLE4=The Sole Of Jonas Kullhammar
TTITLE5=One Less Car On The Road
TTITLE6=All Liquored Up
EXTD=YEAR: 2005
EXTT0=
EXTT1=
EXTT2=
EXTT3=
EXTT4=
EXTT5=
EXTT6=
PLAYORDER=
